<?xml version="1.0" standalone="no"?>
<!DOCTYPE svg PUBLIC "-//W3C//DTD SVG 20010904//EN"
 "http://www.w3.org/TR/2001/REC-SVG-20010904/DTD/svg10.dtd">
<svg version="1.0" xmlns="http://www.w3.org/2000/svg"
 width="260.000000pt" height="260.000000pt" viewBox="0 0 260.000000 260.000000"
 preserveAspectRatio="xMidYMid meet">
<metadata>
Created by potrace 1.14, written by Peter Selinger 2001-2017
</metadata>
<g transform="translate(0.000000,260.000000) scale(0.100000,-0.100000)"
fill="#000000" stroke="none">
<path d="M167 2586 c-55 -20 -103 -61 -134 -114 l-28 -47 0 -1125 0 -1125 28
-47 c31 -53 79 -94 134 -114 56 -20 2210 -20 2266 0 55 20 103 61 134 114 l28
47 0 1125 0 1125 -28 47 c-31 53 -79 94 -134 114 -56 20 -2210 20 -2266 0z
m1477 -285 c277 -78 428 -269 443 -560 17 -337 -147 -573 -457 -656 -54 -15
-123 -19 -407 -22 l-343 -5 0 -322 c0 -314 -1 -323 -22 -366 -33 -64 -66 -84
-147 -88 -83 -5 -137 19 -172 75 l-24 38 0 910 0 910 22 35 c23 37 50 57 93
71 14 4 230 7 480 5 436 -2 458 -3 534 -25z"/>
<path d="M880 1695 l0 -345 243 0 c283 0 359 9 445 51 116 57 168 160 160 318
-7 142 -54 221 -163 274 -77 38 -160 47 -433 47 l-252 0 0 -345z"/>
</g>
</svg>
